<?xml version="1.0" encoding="utf-8"?>
<!-- Generator: Adobe Illustrator 27.2.0, SVG Export Plug-In . SVG Version: 6.00 Build 0)  -->
<svg version="1.1" id="Layer_1" xmlns="http://www.w3.org/2000/svg" xmlns:xlink="http://www.w3.org/1999/xlink" x="0px" y="0px"
	 viewBox="0 0 500 350" style="enable-background:new 0 0 500 350;" xml:space="preserve">
<style type="text/css">
	.st0{fill:#212529;}
	.st1{enable-background:new    ;}
</style>
<path class="st0" d="M0,90.9c0-46.5,31-79,73.5-79c35,0,60.4,25,60.4,40.9c0,5.8-3.5,9.5-9.7,9.5c-16.6,0-15.3-41.4-55.8-41.4
	c-25.7,0-48.5,23.9-48.5,58.9c0,23.2,8.4,40.4,12.3,46.1c3,4.3,21.1,31.1,47.9,29.6c2.5-0.1,15.4-1.1,26-10.3
	c4.9-4.2,7.9-9,12.6-16.4c2.9-4.5,3.8-8.2,8.2-15.5c0.5-0.9,3.2-5.4,5.4-8.3c10.5-14.3,28.6-19.8,29.1-18.8c0.3,0.6-5.1,3.5-8.3,9.1
	c-1.3,2.3-1.3,3.2-4.2,9.2c-0.8,1.6-1.4,2.9-1.8,3.7c-0.6,1.2-1.1,2-1.2,2.4c-2.6,4.8-5.1,10.8-5.1,10.8
	c-2.2,5.1-7.1,14.8-10.1,19.7c-1.8,2.9-9.3,13.1-20.5,22.1c0,0-15.9,10.2-35.7,10.2C35.6,173.2,0,134.7,0,90.9z"/>
<path class="st0" d="M232.1,189.8c0,3.3-6,4.6-14.2,4.6c-10,0-15.3-2.4-16.2-14.6c-5.1,9.3-15.7,15.5-31.9,15.5
	c-24.3,0-41.2-12.2-41.2-33.4c-0.2-21.2,17.5-32.8,40.5-32.8c11.7,0,21.2,3.3,27.2,8.9l-0.4-6c-2.4-26.1-9.5-40.3-27.2-40.3
	c-23,0-19.5,25.2-30.5,25.2c-1.7,0-2.9-2.2-6.7-2.6c-1.7-0.2-2.3,0.2-2.7-0.3c-1.6-1.7,3.4-9.8,9.2-15.6c2.1-2.1,6.9-6.5,14.3-9.8
	c8.1-3.6,15-4,16.4-4c14.6-0.7,25.4,6.6,27.7,8.3c10.7,7.9,17.1,21.1,18.8,38.4l4.4,44C221,189.1,232.1,184.3,232.1,189.8z
	 M198.9,163.9l-0.9-10c-2.2-10.4-11.3-17.7-24.3-17.7c-15,0-25.4,9.3-25.4,23c0,16.2,10.6,29,26.6,29
	C189.6,188.2,199.3,177.4,198.9,163.9z"/>
<path class="st0" d="M218.8,191.4v-0.9c0-4.2,8-4.2,8-12v-65.9c0-8.6-8-10.4-8-13.7v-0.4c0-1.5,1.3-2.2,3.3-3.3l17-8.4
	c4.6-2.2,6.9,0,6.9,3.1v88.7c0,7.7,8.9,7.7,8.9,12v0.9c0,1.8-2,2.9-4.6,2.9h-27.2C220.4,194.3,218.8,193.2,218.8,191.4z"/>
<path class="st0" d="M253.8,147.6V81.5h-14.6c-2,0-3.3-1.3-3.3-3.3V76c0-2,1.1-3.3,3.3-3.3h8c10.6,0,15.7-8.4,16.8-21
	c0.2-2.9,1.8-4.4,3.8-4.4h2.2c2.7,0,3.5,1.5,3.5,4.4l0.2,21h30.5c1.8,0,3.3,1.5,3.3,3.3v2.2c0,2-1.5,3.3-3.3,3.3h-30.5v66.4
	c0,12.2,5.8,18.6,13.9,18.6c9.7,0,15.5-5.8,16.4-13.3c1.3-3.3,6.6-3.1,6.6,0.9c0,13.7-10.6,27-28.3,27
	C265.3,181,253.8,170.2,253.8,147.6z"/>
<path class="st0" d="M393.9,147.2c-2.7,13.3-17.3,31.6-44.9,31.6c-28.5,0-51.3-21.7-51.3-56.2c0-31.2,22.8-54.4,52.2-54.4
	c26.6,0,41.2,17.5,41.2,32.8c0,7.1-3.8,10.8-10.4,13.1l-61.3,20.1c5.1,19,18.6,30.5,36.5,30.5c16.4,0,26.8-8.6,31.6-19.3
	C389.5,142.3,394.6,143,393.9,147.2z M316.9,115.5c0,4,0.2,7.7,0.9,11.3l49.3-17.7c3.8-1.5,5.3-4,5.3-7.7c0-10-10.6-26.1-25.9-26.1
	C328.6,75.3,316.9,93,316.9,115.5z"/>
<path class="st0" d="M481.3,131.1c-2.7,13.3-17.3,31.6-44.9,31.6c-28.5,0-51.3-21.7-51.3-56.2c0-31.2,22.8-54.4,52.2-54.4
	c26.6,0,41.2,17.5,41.2,32.8c0,7.1-3.8,10.8-10.4,13.1l-61.3,20.1c5.1,19,18.6,30.5,36.5,30.5c16.4,0,26.8-8.6,31.6-19.3
	C476.9,126.3,482,126.9,481.3,131.1z M404.3,99.5c0,4,0.2,7.7,0.9,11.3l49.3-17.7c3.8-1.5,5.3-4,5.3-7.7c0-10-10.6-26.1-25.9-26.1
	C416.1,59.2,404.3,76.9,404.3,99.5z"/>
<path class="st0" d="M16.8,290.5c0-5.1,2.9-8.9,8.4-8.9c15.9,0.7,10.4,39.2,54.9,39.2c21,0,35.4-12.2,35.4-29.7
	c0-55.1-94.5-13.5-94.5-79.9c0-24.6,19.9-43.2,55.1-43.2c37.6,0,57.3,20.8,57.3,36.1c0,5.3-3.1,8.9-9.1,8.9
	c-16.6,0-8.2-36.3-48.9-36.3c-22.4,0-34.3,13.1-34.3,29.9c0,51.6,94.7,13.1,94.7,79.9c0,26.6-25.7,42.9-56.7,42.9
	C35.8,329.5,16.8,304,16.8,290.5z"/>
<path class="st0" d="M310.2,321.5v0.9c0,1.8-2,2.7-4.4,2.7h-26.6c-2.9,0-4.4-0.9-4.4-2.7v-0.9c0-4,8-4.4,7.7-12.2l-2.2-43.2
	c-1.5-29.9-11.5-41.2-27.7-41.2c-13.9,0-25.7,12.4-26.3,29.2c0.7,3.3,0.9,7.1,0.9,10.8v44.3c0,7.7,7.7,8.2,7.7,12.2v0.9
	c0,1.8-1.5,2.7-4.2,2.7h-26.1c-2.9,0-4.6-0.9-4.6-2.7v-0.9c0-4,7.7-4.4,7.7-12.2V264c0-24.6-12.2-38.9-27.4-38.9
	c-15.7,0-26.8,13.3-27.4,29.9l0.2,54.4c0,7.7,8.6,8.2,8.6,12.2v0.9c0,1.8-1.8,2.7-4.4,2.7h-27.7c-0.1,0-1.8,0.5-3.2-0.7
	c-1.3-1.1-1.2-2.7-1.2-2.9c0-4,8.4-4.4,8.4-12.2v-67.1c0-8.9-8.9-9.1-8.9-13.1v-0.7c0-1.5,1.1-2.4,3.3-3.3l17.3-8
	c4.2-2.2,6.4,0,6.4,3.3v15.7c6.4-12,18.6-19.9,32.8-19.9c16.4,0,30.8,8.6,37.8,24.3c5.5-15.3,19.5-24.3,35.4-24.3
	c22.6,0,39.6,13.7,41.8,50.2l2.4,42.5C302.5,317.1,310.2,317.5,310.2,321.5z"/>
<path class="st0" d="M300.5,335.3v-0.9c0-4.2,8-4.2,8-12v-65.9c0-8.6-8-10.4-8-13.7v-0.4c0-1.5,1.3-2.2,3.3-3.3l17-8.4
	c4.6-2.2,6.9,0,6.9,3.1v88.7c0,7.7,8.9,7.7,8.9,12v0.9c0,1.8-2,2.9-4.6,2.9h-27.2C302,338.1,300.5,337,300.5,335.3z"/>
<path class="st0" d="M337.6,291.4v-66.2H323c-2,0-3.3-1.3-3.3-3.3v-2.2c0-2,1.1-3.3,3.3-3.3h8c10.6,0,15.7-8.4,16.8-21
	c0.2-2.9,1.8-4.4,3.8-4.4h2.2c2.7,0,3.5,1.5,3.5,4.4l0.2,21H388c1.8,0,3.3,1.5,3.3,3.3v2.2c0,2-1.5,3.3-3.3,3.3h-30.5v66.4
	c0,12.2,5.8,18.6,13.9,18.6c9.7,0,15.5-5.8,16.4-13.3c1.3-3.3,6.6-3.1,6.6,0.9c0,13.7-10.6,27-28.3,27
	C349.1,324.9,337.6,314,337.6,291.4z"/>
<path class="st0" d="M500,297v0.9c0,1.8-1.8,2.7-4.4,2.7H469c-2.7,0-4.4-0.9-4.4-2.7V297c0-4.2,8.4-4.4,8-12.2l-2.2-45.1
	c-1.1-26.1-12-38.9-27.2-38.9c-16.4,0-27.7,13.1-27.7,30.5V285c0,7.7,8.9,7.5,8.9,12v0.7c0,1.8-2,2.9-4.6,2.9H392
	c-2.7,0-4.2-1.1-4.2-2.9V297c0-4.4,8.2-4.2,8.2-12V160c0-8.6-8.4-9.1-8.4-12.6v-0.7c0-1.8,1.1-2.9,3.1-3.8l18.1-8
	c4-2,6.4-0.4,6.4,2.9l-0.4,71.7c6.9-10.6,18.8-17.5,33-17.5c21.7,0,39.8,14.6,41.8,48l2.4,44.5C492.7,292.5,500,292.8,500,297z"/>
<g class="st1">
	<path class="st0" d="M210.2,72.8l12.4-12.2l-16.3-2.9c-8.4-0.6-4.3-12.7,2.6-9l14.7,7.6l-2.9-16.6c-0.9-4,1.4-6.5,5.4-6.7
		c3.7-0.2,6.2,2.5,5.1,6.7l-3.1,16.6l14.6-7.6c7.1-4,10.5,8.4,2.8,9l-16.1,2.9L241.8,73c5.6,5.3-5.3,13-8.7,5.1L226,63l-7.3,15.3
		C215.3,85.8,204.3,77.9,210.2,72.8z"/>
</g>
<g class="st1">
	<path class="st0" d="M295.8,216.5l12.4-12.2l-16.3-2.9c-8.4-0.6-4.3-12.7,2.6-9l14.7,7.6l-2.9-16.6c-0.9-4,1.4-6.5,5.4-6.7
		c3.7-0.2,6.2,2.5,5.1,6.7l-3.1,16.6l14.6-7.6c7.1-4,10.5,8.4,2.8,9l-16.1,2.9l12.4,12.4c5.6,5.3-5.3,13-8.7,5.1l-7.1-15l-7.3,15.3
		C300.9,229.5,289.9,221.6,295.8,216.5z"/>
</g>
</svg>
